<?xml version="1.0" encoding="utf-8"?>
<!-- Generator: Adobe Illustrator 27.2.0, SVG Export Plug-In . SVG Version: 6.00 Build 0)  -->
<svg version="1.1" id="Layer_1" xmlns:xodm="http://www.corel.com/coreldraw/odm/2003"
	 xmlns="http://www.w3.org/2000/svg" xmlns:xlink="http://www.w3.org/1999/xlink" x="0px" y="0px" viewBox="0 0 929.3 932"
	 style="enable-background:new 0 0 929.3 932;" xml:space="preserve">
<style type="text/css">
	.st0{fill-rule:evenodd;clip-rule:evenodd;fill:#C13541;}
</style>
<path class="st0" d="M463.7,932c137.8,0,262.1-59.9,347.4-155.3c-39.5-34.5-99.4-36.7-141.8-2.3l-7.9,6.8
	C584,843.9,471.1,834.3,405,760.3c-36.2-40.7-97.7-44.6-139-9l-93.2,79.6c79.6,63.8,180.8,101.7,290.9,101.7V932z M614.6,706.6
	c73.4-59.3,177.4-57,248,0c42.4-70,66.7-152.5,66.7-240.6c0-97.7-29.9-188.7-81.3-263.2c-33.3-7.3-68.9,1.1-96.6,25.4l-7.9,6.8
	c-74.6,66.1-187.5,62.1-257-9c-37.8-39-100-40.1-139.5-2.8L238.4,324.8l-59.3-63.3l108.5-101.7c74-69.5,189.8-67.2,261,5.1
	c37.3,37.8,97.7,40.1,137.3,5.1l7.9-6.8c24.3-21.5,52-35.6,81.3-43.5C692.5,45.2,582.9,0,463.2,0C226.5,0,31.1,176.2,1.1,404.4
	c71.7-34.5,160.4-21.5,219.2,39c36.7,37.8,96.6,41.8,138.4,9l60.4-47.4c76.3-59.3,183.6-56.5,256.4,6.8l118.1,102.8l-57,65.5
	L618.5,477.3c-41.2-36.2-102.8-37.8-145.7-4l-60.4,47.4c-76.8,59.9-185.8,52.5-254.2-16.9c-39.6-40.6-104-41.8-145.2-3.3L0,512.9
	C9.6,610,49.7,698.7,110.1,768.8l99.4-85.3c77.4-66.1,193.2-58.2,260.4,17.5c35.6,39.5,95.5,44.6,136.7,11.3l7.9-6.8L614.6,706.6
	L614.6,706.6z"/>
</svg>
