<?xml version="1.0" encoding="utf-8"?>
<!-- Generator: Adobe Illustrator 27.2.0, SVG Export Plug-In . SVG Version: 6.00 Build 0)  -->
<svg version="1.1" id="Layer_1" xmlns="http://www.w3.org/2000/svg" xmlns:xlink="http://www.w3.org/1999/xlink" x="0px" y="0px"
	 viewBox="0 0 1329.9 198" style="enable-background:new 0 0 1329.9 198;" xml:space="preserve">
<style type="text/css">
	.st0{fill:#AE253F;}
</style>
<path class="st0" d="M740.4,198c1.4,0,2.4-1.1,2.4-2.4v-80.7c0-1.4-1.1-2.4-2.4-2.4h-45.3c-0.3,0-1.1,0-1.4-0.5
	c-0.3-0.5,0-1.1,0.3-1.6L742.3,5.2c1.6-3.5-0.3-5.2-2.4-5.2H550.4C549,0,548,1.4,548,2.7v80.7c0,1.4,1.1,2.4,2.4,2.4h45.9
	c0.3,0,1.1,0,1.4,0.5c0.3,0.5,0,1.1-0.3,1.6L548.5,193c-1.6,3.3,0.3,4.9,2.4,4.9h189.5V198z"/>
<path class="st0" d="M864.9,198c55.3,0,101-43.7,101-98.3v-97c0-1.6-1.1-2.7-2.7-2.7h-88.7c-1.4,0-2.5,1.1-2.5,2.7V98
	c0,4.1-3.3,7.1-7.1,7.1s-7.1-3-7.1-7.1V2.7c0-1.6-1.1-2.7-2.5-2.7h-88.7c-1.6,0-2.7,1.1-2.7,2.7v97C763.9,154.3,809.6,198,864.9,198
	z"/>
<path class="st0" d="M1079.1,198c1.6,0,2.7-1.1,2.7-2.7v-64.9h7.6l27.1,64.9c0.8,1.6,1.4,2.7,3.5,2.7h91.9c1.9,0,2.4-0.8,1.4-3.3
	l-40.1-95.3l40.1-96.1c1.1-2.4,0.5-3.3-1.4-3.3h-91.7c-2.2,0-2.7,1.1-3.5,2.7l-27.9,66.8h-7.1V2.7c0-1.4-1.1-2.7-2.7-2.7h-89.5
	c-1.6,0-2.7,0.8-2.7,2.7v192.6c0,1.6,1.1,2.7,2.7,2.7H1079.1z"/>
<path class="st0" d="M1327.2,198c1.4,0,2.7-1.1,2.7-2.7V2.7c0-1.4-1.4-2.7-2.7-2.7h-89.6c-1.4,0-2.7,1.4-2.7,2.7v192.6
	c0,1.6,1.4,2.7,2.7,2.7H1327.2z"/>
<path class="st0" d="M524.3,198c1.4,0,2.7-1.1,2.7-2.7V2.7c0-1.4-1.4-2.7-2.7-2.7h-89.6c-1.4,0-2.7,1.4-2.7,2.7v192.6
	c0,1.6,1.4,2.7,2.7,2.7H524.3z"/>
<path class="st0" d="M195,2v81.9c0,1.1-0.9,2-2,2h-45.4c-1.4,0-2.4,1.5-1.8,2.8l14.1,30.4c17.1,36.8-9.8,79-50.4,79H2
	c-1.1,0-2-0.9-2-2v-81.6c0-1.1,0.9-2,2-2h44.9c1.4,0,2.4-1.5,1.8-2.8l-14.3-31C17.5,41.9,44.4,0,84.9,0H193C194.1,0,195,0.9,195,2z"
	/>
<path class="st0" d="M311,63.4L311,63.4c0,4.3,3.5,7.8,7.8,7.8h90.6c0.9,0,1.7,0.8,1.7,1.7v52.3c0,0.9-0.8,1.7-1.7,1.7h-90.6
	c-4.3,0-7.8,3.5-7.8,7.8l0,0c0,4.3,3.5,7.7,7.8,7.7h90.6c0.9,0,1.7,0.8,1.7,1.7v52.2c0,1-0.8,1.8-1.8,1.8H217.8
	c-1,0-1.8-0.8-1.8-1.8V1.8c0-1,0.8-1.8,1.8-1.8h191.5c1,0,1.8,0.8,1.8,1.8V54c0,0.9-0.8,1.7-1.7,1.7h-90.6
	C314.5,55.7,311,59.1,311,63.4z"/>
</svg>
