<?xml version="1.0" encoding="utf-8"?>
<!-- Generator: Adobe Illustrator 27.2.0, SVG Export Plug-In . SVG Version: 6.00 Build 0)  -->
<svg version="1.1" id="Layer_1" xmlns="http://www.w3.org/2000/svg" xmlns:xlink="http://www.w3.org/1999/xlink" x="0px" y="0px"
	 viewBox="0 0 1080 1080" style="enable-background:new 0 0 1080 1080;" xml:space="preserve">
<style type="text/css">
	.st0{fill:#C13541;}
	.st1{fill:#FFFFFF;}
</style>
<path class="st0" d="M799.9,999.1H280.1C125.4,999.1,0,873.7,0,719V361C0,206.3,125.4,80.9,280.1,80.9h519.8
	C954.6,80.9,1080,206.3,1080,361V719C1080,873.7,954.6,999.1,799.9,999.1z"/>
<path class="st1" d="M524.9,315.9c42.1,0,78.2,1,108.3,2.9c30,1.9,56.7,5.4,80,10.6c23.3,5.1,42,11.4,56.2,18.9
	c14.1,7.5,25.8,17.6,35,30.4c9.2,12.8,15.6,27,19.2,42.6c3.6,15.6,5.4,34.7,5.4,57.3H662.1c0-6.8-1.2-12.2-3.7-16
	c-2.5-3.8-8-7.6-16.5-11.2c-8.5-3.6-22-6.2-40.4-7.7c-18.4-1.5-42.6-2.2-72.6-2.2c-39.9,0-69.1,0.9-87.4,2.6
	c-18.4,1.7-30,3.8-35,6.4c-4.9,2.6-7.4,7-7.4,13.4c0.4,5.6,6.6,9.3,18.5,11.2c11.9,1.9,47.6,5.2,107.3,9.9c0.9,0,1.6,0.2,2,0.6
	c118.4,9,193.5,17.1,225.3,24.3c41.7,9.4,68.6,25.4,80.7,48c8.1,15.4,12.1,37.6,12.1,66.6c0,20.5-1.5,37.4-4.4,50.6
	c-2.9,13.2-8.7,25.4-17.5,36.5c-8.7,11.1-20.1,19.8-34,25.9c-13.9,6.2-33.2,11.4-57.8,15.7c-24.7,4.3-52.8,7.2-84.4,8.6
	c-31.6,1.5-71,2.2-118,2.2c-32.3,0-60.2-0.4-83.7-1.3c-23.5-0.9-45.5-2.3-65.9-4.5c-20.4-2.1-37.3-4.9-50.8-8.3
	c-13.5-3.4-25.6-8.1-36.3-14.1c-10.8-6-19.2-12.5-25.2-19.5c-6.1-7-11.1-16.1-15.1-27.2c-4-11.1-6.7-22.8-8.1-35.2
	c-1.3-12.4-2-27.1-2-44.2h162.1c0,7.3,1.2,12.8,3.7,16.7c2.5,3.8,8.4,7,17.8,9.6c9.4,2.6,22.5,4.3,39.3,5.1
	c16.8,0.9,40.7,1.3,71.6,1.3c3.6,0,9,0,16.1,0c51.1,0,82.2-0.9,93.1-2.6c11-1.7,16.5-7.3,16.5-16.7c0-5.5-3.8-9.2-11.4-10.9
	c-7.6-1.7-28.7-3.6-63.2-5.8c-25.1-1.7-46-3.2-62.5-4.5c-26.5-2.1-46.7-3.8-60.9-5.1c-14.1-1.3-31.6-3.1-52.5-5.4
	c-20.9-2.3-36.7-4.7-47.4-7c-10.8-2.3-23.5-5.3-38.3-9c-14.8-3.6-25.9-7.8-33.3-12.5c-7.4-4.7-15.5-10.2-24.2-16.6
	c-8.7-6.4-15-13.7-18.8-21.8c-3.8-8.1-7.2-17.4-10.1-27.9c-2.9-10.5-4.4-21.9-4.4-34.3c0-14.9,1.1-28.4,3.4-40.3
	c2.2-11.9,5.4-22.6,9.4-32c4-9.4,9.6-17.7,16.8-25c7.2-7.3,14.8-13.5,22.9-18.9c8.1-5.3,18.5-9.8,31.3-13.4
	c12.8-3.6,25.6-6.5,38.3-8.6c12.8-2.1,28.6-3.8,47.4-5.1c18.8-1.3,37.3-2.1,55.5-2.6C478.1,316.1,499.8,315.9,524.9,315.9z"/>
</svg>
