<?xml version="1.0" encoding="utf-8"?>
<!-- Generator: Adobe Illustrator 27.2.0, SVG Export Plug-In . SVG Version: 6.00 Build 0)  -->
<svg version="1.1" id="Layer_1" xmlns="http://www.w3.org/2000/svg" xmlns:xlink="http://www.w3.org/1999/xlink" x="0px" y="0px"
	 viewBox="0 0 928.8 198" style="enable-background:new 0 0 928.8 198;" xml:space="preserve">
<style type="text/css">
	.st0{fill:#FFFFFF;}
</style>
<path class="st0" d="M539.9,198c1.9,0,2.7-1.1,3.3-2.7l17.4-53l17.4,53c0.5,1.6,1.4,2.7,3.3,2.7h89c2.2,0,3.3-1.4,2.4-3.5L606.5,1.6
	c-0.3-1.1-1.4-1.6-2.4-1.6h-86.6c-1.4,0-2.2,0.5-2.7,1.6l-66.6,192.9c-0.8,2.2,0.3,3.5,2.4,3.5H539.9z"/>
<path class="st0" d="M224.6,0h-66.3H68.7H2.4C1.1,0,0,1.1,0,2.4v81.1c0,1.3,1,2.3,2.3,2.3H66v109.5c0,1.6,1.4,2.7,2.7,2.7h89.6
	c1.4,0,2.7-1.1,2.7-2.7V85.9h63.6c1.3,0,2.3-1,2.3-2.3V2.4C227,1.1,225.9,0,224.6,0z"/>
<path class="st0" d="M335.9,63.4L335.9,63.4c0,4.3,3.5,7.8,7.8,7.8H434c1.1,0,2,0.9,2,2v51.6c0,1.1-0.9,2-2,2h-90.3
	c-4.3,0-7.8,3.5-7.8,7.8l0,0c0,4.3,3.5,7.7,7.8,7.7H434c1.1,0,2,0.9,2,2.1V196c0,1.1-0.9,2.1-2,2.1H243c-1.1,0-2.1-0.9-2.1-2.1V2
	c0-1.1,0.9-2,2.1-2h191c1.1,0,2,0.9,2,2v51.6c0,1.1-0.9,2-2,2h-90.3C339.4,55.7,335.9,59.1,335.9,63.4z"/>
<path class="st0" d="M926.1,0h-2.2h-87.4c-0.6,0-1.2,0.2-1.6,0.6c0,0,0,0,0,0L834.5,1c0,0,0,0,0,0l-27.6,27.6L779.2,1.1L779.1,1
	l-0.2-0.2l-0.1-0.1c-0.5-0.4-1.1-0.6-1.6-0.6h-87.4h-2.2c-1.4,0-2.7,1.4-2.7,2.7V5v36.1v154.3c0,1.6,1.4,2.7,2.7,2.7h89.6
	c1.4,0,2.7-1.1,2.7-2.7v-54.5h4.7l20.3,20.3c0.1,0.2,0.3,0.3,0.5,0.4c0.1,0.1,0.3,0.1,0.4,0.2c0,0,0,0,0,0c0.9,0.4,2,0.2,2.7-0.4
	c0.1-0.1,0.1-0.1,0.2-0.2l20.3-20.3h4.7v54.5c0,1.6,1.3,2.7,2.7,2.7h89.6c1.3,0,2.7-1.1,2.7-2.7V41.1V5V2.8
	C928.8,1.5,927.5,0,926.1,0z"/>
</svg>
