<?xml version="1.0" encoding="utf-8"?>
<!-- Generator: Adobe Illustrator 27.2.0, SVG Export Plug-In . SVG Version: 6.00 Build 0)  -->
<svg version="1.1" id="Layer_1" xmlns="http://www.w3.org/2000/svg" xmlns:xlink="http://www.w3.org/1999/xlink" x="0px" y="0px"
	 viewBox="0 0 2014 142" style="enable-background:new 0 0 2014 142;" xml:space="preserve">
<style type="text/css">
	.st0{fill:#FF5B68;}
</style>
<g>
	<path class="st0" d="M99.3,1.3c17.5,0,32.5,1.5,45.1,4.5c12.6,3,22.5,7.3,29.8,12.9c7.3,5.6,12.6,12.1,15.9,19.6
		c3.3,7.4,5,16,5,25.8h-47.5c-0.1-0.7-0.4-1.5-0.7-2.6c-0.3-1.1-1.5-2.9-3.5-5.5s-4.6-4.9-7.7-7c-3.2-2.1-8-3.9-14.4-5.6
		c-6.4-1.7-13.9-2.5-22.3-2.5c-7.5,0-14.1,0.6-19.8,1.8c-5.6,1.2-10.1,2.7-13.3,4.6c-3.2,1.9-5.8,4.2-7.7,7
		c-1.9,2.8-3.2,5.6-3.9,8.3c-0.7,2.7-1,5.7-1,9c0,4.6,0.7,8.7,2.2,12.3c1.5,3.6,3.8,6.9,7.1,9.8c3.3,3,8,5.3,14.1,6.9
		c6.1,1.6,13.5,2.4,22.2,2.4c9,0,16.8-0.7,23.4-2c6.6-1.3,11.5-2.9,14.5-4.8c3-1.9,5.5-3.7,7.2-5.7c1.8-1.9,2.8-3.5,3.1-4.9l0.4-2
		H195c0,6.8-0.9,12.9-2.6,18.4c-1.7,5.5-4.8,10.8-9.1,16s-10,9.5-17,12.9c-7,3.4-16,6.2-27.1,8.2c-11.1,2.1-24,3.1-38.7,3.1
		c-18,0-33.1-1.4-45.3-4.1c-12.2-2.7-21.9-7-29.3-12.9c-7.3-5.9-12.6-13-15.8-21.3c-3.2-8.3-4.8-18.6-4.8-30.8
		c0-13.1,2-24.3,6.1-33.7c4-9.3,10.1-16.8,18.2-22.4c8.1-5.6,17.8-9.7,29.2-12.2C70.2,2.5,83.7,1.3,99.3,1.3z"/>
	<path class="st0" d="M303.8,0.3c12.6,0,23.7,0.7,33.4,2.1c9.7,1.4,18.6,3.7,26.8,7.1c8.2,3.3,14.9,7.6,20.2,13
		c5.2,5.4,9.3,12.1,12.2,20.3c2.9,8.1,4.4,17.7,4.4,28.7c0,10.9-1.3,20.3-3.9,28.2c-2.6,7.9-6.3,14.7-11.1,20.2
		c-4.8,5.5-11.2,9.9-19.1,13.3c-7.9,3.4-16.8,5.8-26.7,7.2c-9.9,1.5-21.5,2.2-34.8,2.2c-32.8,0-56.7-6-71.6-18
		c-14.9-12-22.3-30.5-22.3-55.7c0-23.3,7.6-40.5,22.8-51.7C249.4,5.9,272.6,0.3,303.8,0.3z M305.6,105.9c14,0,24.9-2.8,32.6-8.5
		c7.7-5.7,11.5-14.4,11.5-26c0-11.3-4-19.8-12.1-25.7c-8.1-5.9-18.9-8.8-32.6-8.8c-7.1,0-13.4,0.8-18.9,2.3
		c-5.4,1.5-9.9,3.8-13.4,6.9c-3.5,3-6.1,6.7-7.8,10.9c-1.7,4.2-2.6,9.1-2.6,14.5c0,10.5,3.6,18.8,10.9,25.1
		C280.5,102.8,291.3,105.9,305.6,105.9z"/>
	<path class="st0" d="M538,141.9h-38.1l-34.4-61.2v61.2h-46.3V2.5h55.2l45.1,77.3l45.1-77.3H620v139.4h-46.3V80.3L538,141.9z"/>
	<path class="st0" d="M642.3,141.9V2.5h46.3v139.4H642.3z"/>
	<path class="st0" d="M889.7,141.9h-63.2l-68.3-84v84H712V2.5h64.5l67.1,82.6V2.5h46.1V141.9z"/>
	<path class="st0" d="M986.6,60.3h113.6v81.6h-37.1v-14.5c-6,5.2-13.1,9-21.3,11.4c-8.3,2.5-20.3,3.7-36,3.7
		c-14.2,0-26.7-1.1-37.5-3.4c-10.9-2.2-19.9-5.3-27.1-9.2c-7.2-3.9-13.1-8.8-17.7-14.7c-4.6-5.9-7.8-12.2-9.8-19
		c-2-6.8-3-14.4-3-22.8c0-9.7,1.7-18.5,5-26.5c3.3-8,7.8-14.8,13.6-20.4s12.6-10.3,20.5-14.1c7.9-3.8,16.4-6.7,25.6-8.4
		c9.2-1.8,19-2.7,29.3-2.7c14.2,0,26.4,0.9,36.6,2.6c10.3,1.7,18.8,4.4,25.6,7.9c6.8,3.6,12.4,7.6,16.7,12.2
		c4.3,4.6,8.1,10.2,11.4,17l-43.3,14.5c-6.8-9.7-22.6-14.5-47.5-14.5c-9.5,0-17.5,0.8-23.8,2.4c-6.4,1.6-11.2,3.9-14.5,7.1
		c-3.3,3.1-5.6,6.5-7,10.2c-1.3,3.7-2,8.1-2,13.3c0,4.8,0.6,8.8,1.8,12.2s3.4,6.5,6.7,9.4c3.2,2.9,8.1,5.1,14.6,6.7
		c6.5,1.5,14.6,2.3,24.2,2.3c6.8,0,12.5-0.3,17.3-0.9s8.6-1.6,11.5-2.9c2.9-1.3,5-2.4,6.3-3.4c1.3-0.9,2.9-2.4,4.9-4.4h-57.4V60.3z"
		/>
	<path class="st0" d="M1310.7,2.9c12.4,0,23.1,0.3,32,0.9c8.9,0.6,16.7,1.7,23.6,3.3c6.9,1.6,12.4,3.5,16.6,5.9
		c4.2,2.3,7.6,5.5,10.3,9.4c2.7,4,4.6,8.4,5.7,13.2c1.1,4.8,1.6,10.8,1.6,17.8h-49.3c0-2.1-0.4-3.8-1.1-5c-0.7-1.2-2.4-2.3-4.9-3.5
		c-2.5-1.1-6.5-1.9-11.9-2.4c-5.4-0.5-12.6-0.7-21.4-0.7c-11.8,0-20.4,0.3-25.8,0.8c-5.4,0.5-8.9,1.2-10.3,2
		c-1.5,0.8-2.2,2.2-2.2,4.2c0.1,1.7,2,2.9,5.5,3.5c3.5,0.6,14.1,1.6,31.7,3.1c0.3,0,0.5,0.1,0.6,0.2c35,2.8,57.1,5.3,66.5,7.5
		c12.3,2.9,20.3,7.9,23.8,14.9c2.4,4.8,3.6,11.7,3.6,20.7c0,6.4-0.4,11.6-1.3,15.7c-0.9,4.1-2.6,7.9-5.2,11.3c-2.6,3.4-5.9,6.1-10,8
		c-4.1,1.9-9.8,3.5-17.1,4.9c-7.3,1.3-15.6,2.2-24.9,2.7c-9.3,0.5-21,0.7-34.9,0.7c-9.5,0-17.8-0.1-24.7-0.4
		c-7-0.3-13.4-0.7-19.5-1.4c-6-0.7-11-1.5-15-2.6c-4-1.1-7.5-2.5-10.7-4.4c-3.2-1.9-5.7-3.9-7.4-6.1c-1.8-2.2-3.3-5-4.5-8.4
		c-1.2-3.4-2-7.1-2.4-10.9c-0.4-3.8-0.6-8.4-0.6-13.7h47.9c0,2.3,0.4,4,1.1,5.2c0.7,1.2,2.5,2.2,5.3,3c2.8,0.8,6.7,1.3,11.6,1.6
		c5,0.3,12,0.4,21.2,0.4c1.1,0,2.6,0,4.8,0c15.1,0,24.3-0.3,27.5-0.8c3.2-0.5,4.9-2.2,4.9-5.2c0-1.7-1.1-2.8-3.4-3.4
		c-2.3-0.5-8.5-1.1-18.7-1.8c-7.4-0.5-13.6-1-18.5-1.4c-7.8-0.7-13.8-1.2-18-1.6s-9.3-1-15.5-1.7c-6.2-0.7-10.8-1.5-14-2.2
		c-3.2-0.7-7-1.7-11.3-2.8c-4.4-1.1-7.6-2.4-9.8-3.9c-2.2-1.5-4.6-3.2-7.1-5.2c-2.6-2-4.4-4.2-5.6-6.8c-1.1-2.5-2.1-5.4-3-8.6
		c-0.9-3.2-1.3-6.8-1.3-10.6c0-4.6,0.3-8.8,1-12.5c0.7-3.7,1.6-7,2.8-9.9c1.2-2.9,2.8-5.5,5-7.7c2.1-2.2,4.4-4.2,6.8-5.9
		c2.4-1.7,5.5-3,9.2-4.2c3.8-1.1,7.5-2,11.3-2.7c3.8-0.7,8.4-1.2,14-1.6c5.6-0.4,11-0.7,16.4-0.8C1296.9,2.9,1303.3,2.9,1310.7,2.9z
		"/>
	<path class="st0" d="M1512.7,0.3c12.6,0,23.7,0.7,33.4,2.1c9.7,1.4,18.6,3.7,26.8,7.1c8.2,3.3,14.9,7.6,20.2,13
		c5.2,5.4,9.3,12.1,12.2,20.3c2.9,8.1,4.4,17.7,4.4,28.7c0,10.9-1.3,20.3-3.9,28.2c-2.6,7.9-6.3,14.7-11.1,20.2
		c-4.8,5.5-11.2,9.9-19.1,13.3c-7.9,3.4-16.8,5.8-26.7,7.2c-9.9,1.5-21.5,2.2-34.8,2.2c-32.8,0-56.7-6-71.6-18
		c-14.9-12-22.3-30.5-22.3-55.7c0-23.3,7.6-40.5,22.8-51.7C1458.2,5.9,1481.4,0.3,1512.7,0.3z M1514.5,105.9c14,0,24.9-2.8,32.6-8.5
		c7.7-5.7,11.5-14.4,11.5-26c0-11.3-4-19.8-12.1-25.7c-8.1-5.9-18.9-8.8-32.6-8.8c-7.1,0-13.4,0.8-18.9,2.3
		c-5.4,1.5-9.9,3.8-13.4,6.9c-3.5,3-6.1,6.7-7.8,10.9c-1.7,4.2-2.6,9.1-2.6,14.5c0,10.5,3.6,18.8,10.9,25.1
		C1489.4,102.8,1500.2,105.9,1514.5,105.9z"/>
	<path class="st0" d="M1720.6,0.3c12.6,0,23.7,0.7,33.4,2.1c9.7,1.4,18.6,3.7,26.8,7.1c8.2,3.3,14.9,7.6,20.2,13
		c5.2,5.4,9.3,12.1,12.2,20.3c2.9,8.1,4.4,17.7,4.4,28.7c0,10.9-1.3,20.3-3.9,28.2c-2.6,7.9-6.3,14.7-11.1,20.2
		c-4.8,5.5-11.2,9.9-19.1,13.3c-7.9,3.4-16.8,5.8-26.7,7.2c-9.9,1.5-21.5,2.2-34.8,2.2c-32.8,0-56.7-6-71.6-18
		c-14.9-12-22.3-30.5-22.3-55.7c0-23.3,7.6-40.5,22.8-51.7C1666.1,5.9,1689.4,0.3,1720.6,0.3z M1722.4,105.9c14,0,24.9-2.8,32.6-8.5
		c7.7-5.7,11.5-14.4,11.5-26c0-11.3-4-19.8-12.1-25.7c-8.1-5.9-18.9-8.8-32.6-8.8c-7.1,0-13.4,0.8-18.9,2.3
		c-5.4,1.5-9.9,3.8-13.4,6.9c-3.5,3-6.1,6.7-7.8,10.9c-1.7,4.2-2.6,9.1-2.6,14.5c0,10.5,3.6,18.8,10.9,25.1
		C1697.3,102.8,1708.1,105.9,1722.4,105.9z"/>
	<path class="st0" d="M2013.7,141.9h-63.2l-68.3-84v84H1836V2.5h64.5l67.1,82.6V2.5h46.1V141.9z"/>
</g>
</svg>
